{
    "asset" : {
        "generator" : "Khronos glTF Blender I/O v0.9.4",
        "version" : "2.0"
    },
    "scene" : 0,
    "scenes" : [
        {
            "extras" : {
                "glTF2ExportSettings" : {
                    "export_format" : "GLTF_EMBEDDED",
                    "export_apply" : 1,
                    "export_extras" : 1
                }
            },
            "nodes" : [
                0,
                1,
                2
            ],
            "name" : "Scene"
        }
    ],
    "nodes" : [
        {
            "mesh" : 0,
            "scale" : [
                4.5,
                0.125,
                4.5
            ],
            "name" : "Plane"
        },
        {
            "translation" : [
                4.076245307922363,
                5.903861999511719,
                -1.0054539442062378
            ],
            "rotation" : [
                0.16907575726509094,
                0.7558803558349609,
                -0.27217137813568115,
                0.570947527885437
            ],
            "name" : "Lamp"
        },
        {
            "translation" : [
                7.481131553649902,
                5.34366512298584,
                6.5076398849487305
            ],
            "rotation" : [
                0.483536034822464,
                0.33687159419059753,
                -0.20870360732078552,
                0.7804827094078064
            ],
            "name" : "Camera"
        }
    ],
    "materials" : [
        {
            "pbrMetallicRoughness" : {
                "baseColorTexture" : {
                    "texCoord" : 0,
                    "index" : 0
                }
            },
            "name" : "Material.001"
        }
    ],
    "meshes" : [
        {
            "primitives" : [
                {
                    "attributes" : {
                        "TEXCOORD_0" : 0,
                        "NORMAL" : 1,
                        "POSITION" : 2
                    },
                    "indices" : 3,
                    "material" : 0
                }
            ],
            "name" : "Plane.002"
        }
    ],
    "textures" : [
        {
            "sampler" : 0,
            "source" : 0
        }
    ],
    "images" : [
        {
            "bufferView" : 4,
            "mimeType" : "image/jpeg",
            "name" : "Light-Wood-background.jpg"
        }
    ],
    "accessors" : [
        {
            "componentType" : 5126,
            "bufferView" : 0,
            "type" : "VEC2",
            "count" : 188
        },
        {
            "componentType" : 5126,
            "bufferView" : 1,
            "type" : "VEC3",
            "count" : 188
        },
        {
            "count" : 188,
            "type" : "VEC3",
            "bufferView" : 2,
            "max" : [
                1.1481667757034302,
                5.328798294067383,
                1.1510956287384033
            ],
            "componentType" : 5126,
            "min" : [
                -1.1531875133514404,
                -0.1501448005437851,
                -1.1502587795257568
            ]
        },
        {
            "componentType" : 5123,
            "bufferView" : 3,
            "type" : "SCALAR",
            "count" : 312
        }
    ],
    "bufferViews" : [
        {
            "byteLength" : 1504,
            "byteOffset" : 0,
            "buffer" : 0
        },
        {
            "byteLength" : 2256,
            "byteOffset" : 1504,
            "buffer" : 0
        },
        {
            "byteLength" : 2256,
            "byteOffset" : 3760,
            "buffer" : 0
        },
        {
            "byteLength" : 624,
            "byteOffset" : 6016,
            "buffer" : 0
        },
        {
            "byteLength" : 174863,
            "byteOffset" : 6640,
            "buffer" : 0
        }
    ],
    "samplers" : [
        {
            "minFilter" : 9986,
            "wrapT" : 10497,
            "magFilter" : 9729,
            "wrapS" : 10497
        }
    ],
    "buffers" : [
        {
            "uri" : "data:application/octet-stream;base64,",
            "byteLength" : 181504
        }
    ]
}
