{"accessors":[{"name":"mesh01_1_positions","componentType":5126,"count":18561,"min":[-7.329319953918457,-0.0005000000237487257,-7.329319953918457],"max":[7.329319953918457,38.25899887084961,7.329319953918457],"type":"VEC3","bufferView":0,"byteOffset":0},{"name":"mesh01_1_normals","componentType":5126,"count":18561,"min":[-1,-1,-1],"max":[1,1,1],"type":"VEC3","bufferView":0,"byteOffset":222732},{"name":"mesh01_1_texcoords","componentType":5126,"count":18561,"min":[0.034869998693466187,-0.14249999821186066],"max":[1.117799997329712,1.1425199508666992],"type":"VEC2","bufferView":1,"byteOffset":0},{"name":"mesh01_1_0_indices","componentType":5123,"count":71856,"min":[0],"max":[18560],"type":"SCALAR","bufferView":2,"byteOffset":0}],"asset":{"generator":"obj2gltf","version":"2.0"},"buffers":[{"name":"King","byteLength":3023404,"uri":"data:application/octet-stream;base64,"}],"bufferViews":[{"name":"bufferView_0","buffer":0,"byteLength":445464,"byteOffset":0,"byteStride":12,"target":34962},{"name":"bufferView_1","buffer":0,"byteLength":148488,"byteOffset":445464,"byteStride":8,"target":34962},{"name":"bufferView_2","buffer":0,"byteLength":143712,"byteOffset":593952,"target":34963},{"buffer":0,"byteOffset":737664,"byteLength":2285739}],"images":[{"name":"Wood","mimeType":"image/jpeg","bufferView":3}],"materials":[{"name":"material01","pbrMetallicRoughness":{"baseColorTexture":{"index":0},"baseColorFactor":[1,1,1,1],"metallicFactor":0,"roughnessFactor":0.24739999999999995},"emissiveFactor":[0,0,0],"alphaMode":"OPAQUE","doubleSided":false}],"meshes":[{"name":"mesh01_1","primitives":[{"attributes":{"POSITION":0,"NORMAL":1,"TEXCOORD_0":2},"indices":3,"material":0,"mode":4}]}],"nodes":[{"name":"mesh01","mesh":0}],"samplers":[{"magFilter":9729,"minFilter":9986,"wrapS":10497,"wrapT":10497}],"scene":0,"scenes":[{"nodes":[0]}],"textures":[{"name":"Wood","sampler":0,"source":0}]}
