{"accessors":[{"name":"mesh01_1_positions","componentType":5126,"count":3714,"min":[-7.464399814605713,0,-7.464399814605713],"max":[7.464399814605713,30.954999923706055,7.464399814605713],"type":"VEC3","bufferView":0,"byteOffset":0},{"name":"mesh01_1_normals","componentType":5126,"count":3714,"min":[-0.9999899864196777,-1,-0.9999899864196777],"max":[0.9999899864196777,1,0.9999899864196777],"type":"VEC3","bufferView":0,"byteOffset":44568},{"name":"mesh01_1_texcoords","componentType":5126,"count":3714,"min":[0.03355000168085098,-0.4837000072002411],"max":[1.208400011062622,1.479830026626587],"type":"VEC2","bufferView":1,"byteOffset":0},{"name":"mesh01_1_0_indices","componentType":5123,"count":18102,"min":[0],"max":[3713],"type":"SCALAR","bufferView":2,"byteOffset":0}],"asset":{"generator":"obj2gltf","version":"2.0"},"buffers":[{"name":"Queen","byteLength":2440792,"uri":"data:application/octet-stream;base64,"}],"bufferViews":[{"name":"bufferView_0","buffer":0,"byteLength":89136,"byteOffset":0,"byteStride":12,"target":34962},{"name":"bufferView_1","buffer":0,"byteLength":29712,"byteOffset":89136,"byteStride":8,"target":34962},{"name":"bufferView_2","buffer":0,"byteLength":36204,"byteOffset":118848,"target":34963},{"buffer":0,"byteOffset":155052,"byteLength":2285739}],"images":[{"name":"Wood","mimeType":"image/jpeg","bufferView":3}],"materials":[{"name":"material01","pbrMetallicRoughness":{"baseColorTexture":{"index":0},"baseColorFactor":[1,1,1,1],"metallicFactor":0,"roughnessFactor":0.24739999999999995},"emissiveFactor":[0,0,0],"alphaMode":"OPAQUE","doubleSided":false}],"meshes":[{"name":"mesh01_1","primitives":[{"attributes":{"POSITION":0,"NORMAL":1,"TEXCOORD_0":2},"indices":3,"material":0,"mode":4}]}],"nodes":[{"name":"mesh01","mesh":0}],"samplers":[{"magFilter":9729,"minFilter":9986,"wrapS":10497,"wrapT":10497}],"scene":0,"scenes":[{"nodes":[0]}],"textures":[{"name":"Wood","sampler":0,"source":0}]}
