{"accessors":[{"name":"mesh01_1_positions","componentType":5126,"count":7624,"min":[-6.561079978942871,0,-6.561079978942871],"max":[6.561079978942871,23.87700080871582,6.561079978942871],"type":"VEC3","bufferView":0,"byteOffset":0},{"name":"mesh01_1_normals","componentType":5126,"count":7624,"min":[-1,-1,-1],"max":[1,1,1],"type":"VEC3","bufferView":0,"byteOffset":91488},{"name":"mesh01_1_texcoords","componentType":5126,"count":7624,"min":[0,0],"max":[1.083340048789978,1],"type":"VEC2","bufferView":1,"byteOffset":0},{"name":"mesh01_1_0_indices","componentType":5123,"count":40896,"min":[0],"max":[7623],"type":"SCALAR","bufferView":2,"byteOffset":0}],"asset":{"generator":"obj2gltf","version":"2.0"},"buffers":[{"name":"Rook","byteLength":2611500,"uri":"data:application/octet-stream;base64,"}],"bufferViews":[{"name":"bufferView_0","buffer":0,"byteLength":182976,"byteOffset":0,"byteStride":12,"target":34962},{"name":"bufferView_1","buffer":0,"byteLength":60992,"byteOffset":182976,"byteStride":8,"target":34962},{"name":"bufferView_2","buffer":0,"byteLength":81792,"byteOffset":243968,"target":34963},{"buffer":0,"byteOffset":325760,"byteLength":2285739}],"images":[{"name":"Wood","mimeType":"image/jpeg","bufferView":3}],"materials":[{"name":"material01","pbrMetallicRoughness":{"baseColorTexture":{"index":0},"baseColorFactor":[1,1,1,1],"metallicFactor":0,"roughnessFactor":0.24739999999999995},"emissiveFactor":[0,0,0],"alphaMode":"OPAQUE","doubleSided":false}],"meshes":[{"name":"mesh01_1","primitives":[{"attributes":{"POSITION":0,"NORMAL":1,"TEXCOORD_0":2},"indices":3,"material":0,"mode":4}]}],"nodes":[{"name":"mesh01","mesh":0}],"samplers":[{"magFilter":9729,"minFilter":9986,"wrapS":10497,"wrapT":10497}],"scene":0,"scenes":[{"nodes":[0]}],"textures":[{"name":"Wood","sampler":0,"source":0}]}
