{"accessors":[{"name":"mesh01_1_positions","componentType":5126,"count":15604,"min":[-5.63838005065918,0,-5.638370037078857],"max":[5.63838005065918,20.350000381469727,5.638370037078857],"type":"VEC3","bufferView":0,"byteOffset":0},{"name":"mesh01_1_normals","componentType":5126,"count":15604,"min":[-0.9999989867210388,-1,-0.9999970197677612],"max":[1,1,0.9999960064888],"type":"VEC3","bufferView":0,"byteOffset":187248},{"name":"mesh01_1_texcoords","componentType":5126,"count":15604,"min":[0,0.032499998807907104],"max":[1.208359956741333,0.9674999713897705],"type":"VEC2","bufferView":1,"byteOffset":0},{"name":"mesh01_1_0_indices","componentType":5123,"count":89280,"min":[0],"max":[15603],"type":"SCALAR","bufferView":2,"byteOffset":0}],"asset":{"generator":"obj2gltf","version":"2.0"},"buffers":[{"name":"Knight","byteLength":2044300,"uri":"data:application/octet-stream;base64,"}],"bufferViews":[{"name":"bufferView_0","buffer":0,"byteLength":374496,"byteOffset":0,"byteStride":12,"target":34962},{"name":"bufferView_1","buffer":0,"byteLength":124832,"byteOffset":374496,"byteStride":8,"target":34962},{"name":"bufferView_2","buffer":0,"byteLength":178560,"byteOffset":499328,"target":34963},{"buffer":0,"byteOffset":677888,"byteLength":1366409}],"images":[{"name":"Wood","mimeType":"image/jpeg","bufferView":3}],"materials":[{"name":"Wood","pbrMetallicRoughness":{"baseColorTexture":{"index":0},"baseColorFactor":[1,1,1,1],"metallicFactor":0,"roughnessFactor":0},"emissiveFactor":[0,0,0],"alphaMode":"OPAQUE","doubleSided":false}],"meshes":[{"name":"mesh01_1","primitives":[{"attributes":{"POSITION":0,"NORMAL":1,"TEXCOORD_0":2},"indices":3,"material":0,"mode":4}]}],"nodes":[{"name":"mesh01","mesh":0}],"samplers":[{"magFilter":9729,"minFilter":9986,"wrapS":10497,"wrapT":10497}],"scene":0,"scenes":[{"nodes":[0]}],"textures":[{"name":"Wood","sampler":0,"source":0}]}
